<?xml version="1.0" encoding="utf-8"?>
<!-- Generator: Adobe Illustrator 19.0.0, SVG Export Plug-In . SVG Version: 6.00 Build 0)  -->
<svg version="1.1" id="Layer_1" xmlns="http://www.w3.org/2000/svg" xmlns:xlink="http://www.w3.org/1999/xlink" x="0px" y="0px"
	 viewBox="0 0 395.2 120.8" style="enable-background:new 0 0 395.2 120.8;" xml:space="preserve">
<style type="text/css">
	.st0{fill:#EE3524;}
	.st1{fill:#7AC143;}
	.st2{fill:#9398CC;}
	.st3{fill:#9FCBED;}
	.st4{fill:#A0CF67;}
	.st5{fill:#C1D82F;}
	.st6{fill:#007DC3;}
	.st7{fill:#54B948;}
	.st8{fill:#FFFFFF;}
	.st9{fill:#111111;}
</style>
<path class="st0" d="M93.1,74.6c0,2.1-1.7,3.8-3.8,3.8H45.9c-2.1,0-3.8-1.7-3.8-3.8V31.3c0-2.1,1.7-3.8,3.8-3.8h43.3
	c2.1,0,3.8,1.7,3.8,3.8V74.6z"/>
<path class="st1" d="M108,62c0,2.1-1.7,3.8-3.8,3.8h-5.4c-2.1,0-3.8-1.7-3.8-3.8v-5.4c0-2.1,1.7-3.8,3.8-3.8h5.4
	c2.1,0,3.8,1.7,3.8,3.8V62z"/>
<path class="st2" d="M13.1,89.5c0,2.1-1.7,3.8-3.8,3.8H3.8c-2.1,0-3.8-1.7-3.8-3.8v-5.4c0-2.1,1.7-3.8,3.8-3.8h5.4
	c2.1,0,3.8,1.7,3.8,3.8V89.5z"/>
<path class="st3" d="M13.1,47.2c0,2.1-1.7,3.8-3.8,3.8H3.9c-2.1,0-3.8-1.7-3.8-3.8v-5.4C0,39.7,1.7,38,3.9,38h5.4
	c2.1,0,3.8,1.7,3.8,3.8V47.2z"/>
<path class="st1" d="M40.2,102.1c0,2.1-1.7,3.8-3.8,3.8H31c-2.1,0-3.9-1.7-3.9-3.8v-5.4c0-2.1,1.7-3.8,3.9-3.8h5.4
	c2.1,0,3.8,1.7,3.8,3.8V102.1z"/>
<path class="st1" d="M55.1,117c0,2.1-1.7,3.8-3.8,3.8h-5.4c-2.1,0-3.9-1.7-3.9-3.8v-5.4c0-2.1,1.7-3.8,3.9-3.8h5.4
	c2.1,0,3.8,1.7,3.8,3.8V117z"/>
<path class="st4" d="M122.9,62c0,2.1-1.7,3.8-3.8,3.8h-5.4c-2.1,0-3.8-1.7-3.8-3.8v-5.4c0-2.1,1.7-3.8,3.8-3.8h5.4
	c2.1,0,3.8,1.7,3.8,3.8V62z"/>
<path class="st5" d="M137.9,47.2c0,2.1-1.7,3.8-3.8,3.8h-5.4c-2.1,0-3.8-1.7-3.8-3.8v-5.4c0-2.1,1.7-3.8,3.8-3.8h5.4
	c2.1,0,3.8,1.7,3.8,3.8V47.2z"/>
<path class="st4" d="M108,21.8c0,2.1-1.7,3.8-3.8,3.8h-5.4c-2.1,0-3.8-1.7-3.8-3.8v-5.4c0-2.1,1.7-3.8,3.8-3.8h5.4
	c2.1,0,3.8,1.7,3.8,3.8V21.8z"/>
<path class="st1" d="M93.1,102.1c0,2.1-1.7,3.8-3.8,3.8H71.5c-2.1,0-3.9-1.7-3.9-3.8V84.1c0-2.1,1.7-3.8,3.9-3.8h17.7
	c2.1,0,3.8,1.7,3.8,3.8V102.1z"/>
<path class="st6" d="M40.2,74.6c0,2.1-1.7,3.8-3.8,3.8H18.7c-2.1,0-3.8-1.7-3.8-3.8V56.7c0-2.1,1.7-3.9,3.8-3.9h17.7
	c2.1,0,3.8,1.7,3.8,3.9V74.6z"/>
<path class="st7" d="M93.1,21.8c0,2.1-1.7,3.9-3.8,3.9H71.5c-2.1,0-3.9-1.7-3.9-3.9V3.8c0-2.1,1.7-3.8,3.9-3.8h17.7
	c2.1,0,3.8,1.7,3.8,3.8V21.8z"/>
<polygon class="st8" points="59.4,56.5 54.1,76 69.5,60.2 81.7,70.8 79.1,56 89.7,48.7 77.3,46.4 73.6,30 65,45.5 44.9,49.6 "/>
<path class="st9" d="M109.9,87.3l-1.1-1c1.2-1.4,2.5-2.8,3.9-4.2c1.4-1.3,2.6-2,3.5-2c0.7,0,1.2,0.4,1.6,1.3
	c0.5,1.4,0.7,3.8,0.7,7.2c0,2.1-0.1,5.2-0.3,9.5L118,100l0.1,0.1c1.1-1.4,2.1-2.5,2.9-3.4c0.8-0.9,1.6-2.1,2.6-3.5
	c1-1.4,1.8-2.7,2.4-3.9c0.6-1.2,0.9-2.3,0.9-3.2c0-0.9-0.2-1.5-0.6-1.7c-0.4-0.3-0.9-0.4-1.4-0.4l-0.2-0.5c0.8-0.7,1.4-1.3,1.8-1.7
	c0.4-0.4,0.8-0.9,1.3-1.6c1.2,0.3,2,0.9,2.3,1.8c0.4,0.9,0.6,1.7,0.6,2.4c0,1.6-0.5,3.2-1.5,4.9c-1,1.7-2.5,3.7-4.4,6
	c-0.7,0.8-1.6,1.9-2.8,3.3c-1.2,1.4-2.4,2.8-3.7,4.2c-1.3,1.4-2.3,2.5-3,3.2h-1.6c0.3-2.9,0.5-5.7,0.6-8.7c0.1-2.9,0.2-5,0.2-6.1
	c0-1.5-0.1-3-0.2-4.4c-0.1-1.5-0.5-2.2-1-2.2c-0.4,0-1,0.4-1.8,1.2C110.7,86.5,110.1,87,109.9,87.3z"/>
<path class="st9" d="M141.4,98.8l1.1,1.2c-1.6,1.6-3.4,3-5.2,4.2c-1.8,1.2-3.2,1.9-4.2,1.9c-0.4,0-0.7-0.2-1.1-0.5
	c-0.3-0.3-0.5-0.7-0.5-1.2c0-0.7,0.3-1.9,0.8-3.5l2-5.6c0.1-0.4,0.7-2.1,1.7-5.1c1-3,1.5-4.6,1.5-4.7c0-0.4-0.2-0.7-0.6-0.7
	c-0.3,0-0.7,0.2-1.3,0.7c-0.6,0.5-1.2,0.9-1.6,1.5l-0.7,0.7l-1-1.1c1.9-2,3.7-3.5,5.4-4.7c1.7-1.1,2.9-1.7,3.8-1.7
	c0.7,0,1.1,0.4,1.1,1.1c0,0.4-0.2,1.3-0.6,2.7c-0.4,1.4-0.9,3.1-1.6,5.1c-0.7,2-1.2,3.5-1.5,4.6c-0.5,1.2-1,2.7-1.5,4.4
	c-0.5,1.7-0.8,2.7-0.8,3.1c0,0.4,0.2,0.7,0.5,0.7c0.7,0,1.9-0.8,3.7-2.3c0.1-0.1,0.2-0.1,0.4-0.3C141.2,98.9,141.3,98.8,141.4,98.8z
	"/>
<path class="st9" d="M160.8,86.6h-1.3c-0.1-1.1-0.5-2.1-1-3c-0.6-1-1.7-1.4-3.3-1.4c-1.1,0-2,0.3-2.7,0.9c-0.7,0.6-1.1,1.4-1.1,2.3
	c0,0.4,0.1,0.8,0.3,1.3c0.2,0.4,0.6,0.9,1.1,1.6c0.6,0.6,1.3,1.4,2.3,2.3c1.5,1.4,2.6,2.7,3.3,3.9c0.7,1.2,1.1,2.4,1.1,3.6
	c0,1.3-0.4,2.6-1.3,3.8c-0.9,1.2-2.1,2.2-3.6,2.9c-1.5,0.7-3.2,1.1-4.9,1.1c-1.7,0-3-0.2-4-0.7c-1-0.4-2-1-2.9-1.7
	c1-1.7,1.7-3.3,2.3-4.8l0.7,0.2c0.3,1.2,0.5,1.9,0.8,2.3c0.5,0.6,1.2,1.1,2,1.5c0.9,0.4,1.8,0.6,2.6,0.6c1.3,0,2.3-0.3,3.1-1
	c0.8-0.7,1.2-1.6,1.2-2.7c0-0.7-0.3-1.6-0.8-2.5c-0.6-0.9-1.7-2.2-3.3-3.9c-1.5-1.6-2.5-2.8-3-3.6c-0.5-0.8-0.8-1.7-0.8-2.7
	c0-1.2,0.4-2.3,1.2-3.4c0.8-1.1,1.8-1.9,3.2-2.5c1.4-0.6,2.9-0.9,4.5-0.9c2.1,0,4,0.5,5.6,1.6c-0.1,0.4-0.3,1.1-0.6,2.2
	C161.3,84.9,161,85.8,160.8,86.6z"/>
<path class="st9" d="M173.6,98.8l1.1,1.2c-1.6,1.6-3.4,3-5.2,4.2c-1.8,1.2-3.2,1.9-4.2,1.9c-0.4,0-0.7-0.2-1.1-0.5
	c-0.3-0.3-0.5-0.7-0.5-1.2c0-0.7,0.3-1.9,0.8-3.5l2-5.6c0.1-0.4,0.7-2.1,1.7-5.1c1-3,1.5-4.6,1.5-4.7c0-0.4-0.2-0.7-0.6-0.7
	c-0.3,0-0.7,0.2-1.4,0.7c-0.6,0.5-1.2,0.9-1.6,1.5l-0.7,0.7l-1-1.1c1.9-2,3.7-3.5,5.4-4.7c1.7-1.1,2.9-1.7,3.8-1.7
	c0.7,0,1.1,0.4,1.1,1.1c0,0.4-0.2,1.3-0.6,2.7c-0.4,1.4-0.9,3.1-1.6,5.1c-0.7,2-1.2,3.5-1.5,4.6c-0.5,1.2-1,2.7-1.5,4.4
	c-0.5,1.7-0.8,2.7-0.8,3.1c0,0.4,0.2,0.7,0.5,0.7c0.7,0,1.9-0.8,3.7-2.3c0.1-0.1,0.2-0.1,0.4-0.3C173.4,98.9,173.5,98.8,173.6,98.8z
	"/>
<path class="st9" d="M188.1,74.3l1.5,0.1c-0.9,2.5-1.7,4.7-2.3,6.5c2.2,0,4.3,0,6.2-0.1l0.2,0.5c-0.5,0.7-0.9,1.4-1.2,2
	c-1.5-0.1-3.5-0.2-5.9-0.2c-0.3,0.9-0.8,2.8-1.7,5.7c-0.9,2.9-1.6,5.5-2.2,7.7c-0.6,2.2-0.9,3.6-0.9,4.1c0,0.4,0.1,0.6,0.3,0.7
	c0.2,0.1,0.4,0.2,0.6,0.2c0.8,0,2.5-1,5.3-3.1l1,1.1c-1.6,1.5-3.3,3-5.2,4.4c-1.9,1.4-3.5,2.1-5,2.1c-1.3,0-2-0.6-2-1.9
	c0-0.4,0.1-1,0.3-1.9c0.2-0.8,0.4-1.7,0.7-2.4c0.2-0.8,0.5-1.5,0.7-2.2c0.1-0.4,0.2-0.8,0.4-1.4c0.2-0.5,0.4-1.2,0.6-2.1
	c0.3-0.8,0.7-2.3,1.3-4.5c0.6-2.2,1.2-3.9,1.5-5.1c0.1,0,0.2-0.4,0.4-1.3c-0.8,0-2,0.1-3.7,0.2l0.4-1.6c1.5-0.5,2.8-1.2,4-2.1
	C184.8,78.7,186.3,76.9,188.1,74.3z"/>
<path class="st9" d="M234.1,103.8c-2.1-0.2-3.8-0.9-5.2-2.2c-1.3-1.3-2.3-2.9-3.2-4.7l0,0l0,0c0,0-0.5-1-1.1-2.2l-1.2-2.5l-0.4-0.9
	c-0.1-0.2-0.2-0.3-0.2-0.3l0,0l-0.2-0.4c-0.8-1.6-1.7-3.3-3.2-4.3l-0.2-0.1l-0.1-0.1l0.1,0l0.2,0c2-0.4,4.9-1.2,7.1-3
	c2.1-1.7,3.2-3.9,3.2-6.6c0-2.8-1.2-5.3-3.4-7.1c-2.3-1.9-5.6-2.9-9.4-2.9h-23.1v2.3c1.9,0,3.2,0.1,4.1,0.7c0.8,0.6,1.2,1.7,1.2,3.6
	v26c0,1.9-0.3,3-1.2,3.6c-0.8,0.6-2.2,0.7-4.1,0.7v2.3h19.1v-2.3c-1.9,0-3.2-0.1-4.1-0.7c-0.8-0.6-1.2-1.7-1.2-3.6V87.1v-0.1v0h0
	h0.1c2.3,0,4.4,0.6,7.7,7.6c0,0,3.2,6.8,3.2,6.8c0.2,0.5,0.5,1,0.7,1.4c0.5,1,1,2.1,1.6,3.1h13.2V103.8z M218,82.5
	c-1.9,1.5-4.8,2.2-9.2,2.2h-1h-0.1h0v0v-0.1V73c0-1.6,0-2.2,0.5-3c0.5-0.8,1.5-1.1,3.3-1.1c3.3,0,5.4,0.5,6.9,1.6
	c1.5,1.1,2.2,2.9,2.2,5.5C220.5,79.1,219.7,81.1,218,82.5z"/>
<path class="st9" d="M262.9,102.4l1.1,1.9c-1,0.7-2,1.2-2.8,1.5c-0.8,0.3-1.7,0.4-2.7,0.4c-1.5,0-2.7-0.3-3.6-0.9
	c-0.9-0.6-1.7-1.8-2.5-3.5c-1.8,1.7-3.3,2.9-4.7,3.5c-1.4,0.6-3,0.9-4.7,0.9c-2.4,0-4.3-0.6-5.7-1.7c-1.4-1.1-2-2.5-2-4.3
	c0-2.6,1.3-4.7,3.8-6.3c2-1.2,6.4-2.5,13.3-3.7v-3.5c0-1.4-0.5-2.5-1.4-3.4c-0.9-0.9-2.1-1.3-3.7-1.3c-1.2,0-2.2,0.3-3.1,0.8
	c-0.6,0.3-0.9,0.7-0.9,1c0,0.2,0.1,0.4,0.3,0.8c0.5,0.8,0.7,1.5,0.7,2.3c0,1-0.3,1.7-1,2.3c-0.6,0.6-1.5,0.9-2.6,0.9
	c-1.1,0-2-0.3-2.7-1c-0.7-0.6-1-1.5-1-2.5c0-1.7,0.9-3.1,2.7-4.4c2.3-1.6,5.1-2.4,8.4-2.4c2.5,0,4.8,0.4,6.7,1.2
	c1.3,0.5,2.3,1.4,3.1,2.6c0.8,1.2,1.2,2.8,1.2,4.6v12.3c0,0.9,0.2,1.6,0.5,2c0.3,0.4,0.8,0.6,1.4,0.6
	C261.4,103.2,262.1,103,262.9,102.4z M252.1,92.5c-3.7,0.5-6.2,1.3-7.5,2.3c-1.3,1-2,2.4-2,4.1c0,1.2,0.3,2.1,0.9,2.8
	c0.6,0.6,1.5,1,2.6,1c1.7,0,3.1-0.6,4.3-1.8s1.7-2.9,1.7-5V92.5z"/>
<path class="st9" d="M264.4,67l11.5-0.6v35c0,0.6,0.2,1.1,0.6,1.5c0.4,0.4,1,0.5,1.7,0.5h1.6v2.5h-14.8v-2.5h1.7
	c0.8,0,1.3-0.2,1.7-0.6c0.4-0.4,0.6-1,0.6-1.9V72.2c0-0.9-0.2-1.6-0.7-2.1c-0.5-0.5-1.2-0.7-2-0.7h-1.8V67z"/>
<path class="st9" d="M307.1,93.6h-17.1c0.1,3.4,0.7,5.9,2.1,7.6c1.3,1.6,3,2.4,5.1,2.4c1.5,0,2.9-0.4,4.2-1.3
	c1.3-0.8,2.7-2.3,4.1-4.5l1.9,1.2c-1.5,2.6-3.2,4.5-5.1,5.6c-1.9,1.1-4.2,1.7-7,1.7c-4,0-7.2-1.2-9.7-3.6c-2.5-2.4-3.7-5.5-3.7-9.3
	c0-3.8,1.2-7,3.7-9.5c2.5-2.6,5.5-3.8,9.1-3.8c2.5,0,4.6,0.5,6.4,1.5c1.8,1,3.2,2.5,4.2,4.5C306.5,87.9,307.1,90.4,307.1,93.6z
	 M290.1,91.2h8.1c0.8,0,1.3-0.2,1.6-0.6c0.3-0.4,0.5-1.1,0.5-2.1c0-2-0.5-3.6-1.4-4.7c-0.9-1.1-2.1-1.7-3.5-1.7
	c-1.7,0-3,0.7-3.8,2.2C290.7,86,290.2,88.2,290.1,91.2z"/>
<path class="st9" d="M311,80.7l10.9-0.5v21.4c0,0.6,0.2,1,0.5,1.3c0.4,0.3,0.9,0.5,1.6,0.5h1.7v2.5H311v-2.5h1.6
	c0.9,0,1.5-0.2,1.8-0.6c0.4-0.4,0.5-1.1,0.5-2.1V86.5c0-0.9-0.3-2.1-0.8-2.6c-0.5-0.5-1.2-0.7-2.1-0.7H311V80.7z M317.8,67.1
	c1.2,0,2.2,0.4,3,1.2c0.8,0.8,1.3,1.8,1.3,3s-0.4,2.2-1.3,3c-0.8,0.8-1.9,1.2-3,1.2c-1.2,0-2.2-0.4-3.1-1.3c-0.8-0.8-1.3-1.8-1.3-3
	c0-1.2,0.4-2.2,1.3-3C315.6,67.5,316.6,67.1,317.8,67.1z"/>
<path class="st9" d="M348.1,81.2c2.1-2.5,4.2-3.7,6.3-3.7c1.1,0,1.9,0.3,2.5,0.9c0.6,0.6,0.9,1.4,0.9,2.4c0,0.9-0.2,1.5-0.7,2.1
	c-0.5,0.5-1.1,0.8-1.8,0.8c-1,0-1.8-0.5-2.2-1.6c-0.3-0.7-0.6-1-1-1c-0.5,0-1.2,0.5-2,1.5c1.9,1.9,2.8,3.9,2.8,6
	c0,1.6-0.4,3.1-1.3,4.5c-0.9,1.3-2.2,2.4-4.1,3.2c-1.8,0.8-4.1,1.2-6.8,1.2l-2.8-0.1c-2.1,0-3.5,0.2-4.2,0.6c-0.8,0.4-1.1,1-1.1,1.6
	c0,0.6,0.2,1,0.7,1.3c0.6,0.4,1.6,0.6,2.9,0.6l2.4-0.1c2.6-0.1,4.5-0.2,5.8-0.2c4.1,0,6.9,0.6,8.5,1.7c1.6,1.2,2.4,2.8,2.4,4.8
	c0,2.5-0.9,4.4-2.8,5.9c-2.2,1.8-6.2,2.7-11.7,2.7c-4.8,0-8.1-0.6-10-1.7c-1.9-1.1-2.9-2.4-2.9-3.9c0-0.9,0.4-1.7,1.2-2.4
	c0.8-0.7,2.6-1.4,5.2-2c-1.7-0.3-3-0.9-3.9-1.8c-0.9-0.8-1.3-1.9-1.3-3.3c0-1.2,0.3-2.2,1-3.1c0.7-0.8,1.8-1.6,3.5-2.2
	c-1.6-0.9-2.8-1.9-3.6-3.1c-0.8-1.2-1.2-2.6-1.2-4.1c0-1.7,0.4-3.2,1.3-4.5c0.9-1.3,2.3-2.4,4.1-3.2c1.9-0.8,4.1-1.2,6.8-1.2
	c1.3,0,2.5,0.1,3.7,0.3C345.9,80.5,347,80.8,348.1,81.2z M351.2,110.1c0-1-0.6-1.8-1.7-2.3c-0.8-0.3-2.5-0.5-5.3-0.5
	c-4.9,0-8.1,0.3-9.5,1c-1.4,0.7-2.1,1.5-2.1,2.5c0,0.9,0.6,1.7,1.7,2.4c1.1,0.6,3.2,1,6.3,1c4,0,6.9-0.5,8.7-1.4
	C350.5,112.1,351.2,111.2,351.2,110.1z M340.8,82.2c-1.2,0-2.2,0.6-3.1,1.7c-0.9,1.1-1.3,2.8-1.3,4.9c0,2,0.4,3.6,1.3,4.7
	c0.9,1.1,1.9,1.6,3.1,1.6c1.2,0,2.3-0.6,3.1-1.7c0.9-1.1,1.3-2.7,1.3-4.7c0-2-0.4-3.6-1.3-4.8C343.1,82.8,342.1,82.2,340.8,82.2z"/>
<path class="st9" d="M357.2,67l11.6-0.6v19.1c1.8-2.2,3.4-3.7,4.9-4.5c1.5-0.8,3.1-1.2,4.9-1.2c2.5,0,4.3,0.7,5.6,2.2
	c1.5,1.7,2.2,4.1,2.2,7.3v11.7c0,0.8,0.2,1.4,0.5,1.8c0.4,0.4,0.9,0.6,1.6,0.6h1.7v2.5h-14.8v-2.5h1.6c0.9,0,1.5-0.2,1.8-0.5
	c0.4-0.4,0.7-1.1,0.7-1.8V89.6c0-1.6-0.4-3-1.3-3.9c-0.9-1-2-1.5-3.3-1.5c-1.6,0-3.1,0.7-4.2,2.1c-1.2,1.4-1.8,3.3-1.8,5.6v9.1
	c0,0.8,0.2,1.4,0.6,1.8c0.4,0.4,0.9,0.6,1.6,0.6h1.8v2.5h-15.3v-2.5h2.1c0.8,0,1.3-0.2,1.7-0.6c0.4-0.4,0.6-1,0.6-1.7V72.2
	c0-0.8-0.3-1.5-0.8-2c-0.5-0.5-1.2-0.7-2.1-0.7h-1.8V67z"/>
<path class="st9" d="M143.3,69.2c0.7,0,1.3,0.3,1.8,0.7c0.5,0.5,0.8,1.1,0.8,1.8c0,0.7-0.3,1.3-0.8,1.8c-0.5,0.5-1.1,0.7-1.8,0.7
	c-0.7,0-1.3-0.3-1.8-0.8c-0.5-0.5-0.8-1.1-0.8-1.8c0-0.7,0.3-1.3,0.8-1.8C142,69.4,142.6,69.2,143.3,69.2z"/>
<path class="st9" d="M175.1,69.2c0.7,0,1.3,0.3,1.8,0.7c0.5,0.5,0.8,1.1,0.8,1.8c0,0.7-0.3,1.3-0.8,1.8c-0.5,0.5-1.1,0.7-1.8,0.7
	c-0.7,0-1.3-0.3-1.8-0.8c-0.5-0.5-0.8-1.1-0.8-1.8c0-0.7,0.3-1.3,0.8-1.8C173.7,69.4,174.3,69.2,175.1,69.2z"/>
<path class="st9" d="M388.4,68.1c0-1.9,1.5-3.4,3.4-3.4c1.9,0,3.4,1.5,3.4,3.4c0,1.9-1.5,3.4-3.4,3.4C390,71.5,388.4,70,388.4,68.1z
	 M394.7,68.1c0-1.7-1.2-3-2.9-3c-1.7,0-2.9,1.3-2.9,3c0,1.7,1.2,3,2.9,3C393.5,71.1,394.7,69.8,394.7,68.1z M393.5,70H393l-1.1-1.8
	H391V70h-0.5v-3.8h1.7c1,0,1.4,0.4,1.4,1c0,0.7-0.5,1-1.2,1L393.5,70z M391.8,67.9c0.5,0,1.3,0.1,1.3-0.7c0-0.6-0.5-0.7-1-0.7H391
	v1.4H391.8z"/>
</svg>
