<?xml version="1.0" encoding="utf-8"?>
<!-- Generator: Adobe Illustrator 15.1.0, SVG Export Plug-In . SVG Version: 6.00 Build 0)  -->
<!DOCTYPE svg PUBLIC "-//W3C//DTD SVG 1.1//EN" "http://www.w3.org/Graphics/SVG/1.1/DTD/svg11.dtd">
<svg version="1.1" id="Layer_1" xmlns="http://www.w3.org/2000/svg" xmlns:xlink="http://www.w3.org/1999/xlink" x="0px" y="0px"
	 width="451.389px" height="300.927px" viewBox="0 0 451.389 300.927" enable-background="new 0 0 451.389 300.927"
	 xml:space="preserve">
<rect fill="#ED3426" width="451.389" height="300.927"/>
<g>
	<defs>
		<rect id="SVGID_1_" width="451.389" height="300.927"/>
	</defs>
	<clipPath id="SVGID_2_">
		<use xlink:href="#SVGID_1_"  overflow="visible"/>
	</clipPath>
	<path clip-path="url(#SVGID_2_)" fill="#FFFFFF" d="M81.169,164.854c1.281,0,2.269,0.986,2.269,2.274v56.997
		c0,1.181-0.988,2.17-2.269,2.17H68.727c-0.888,0-1.68-0.491-2.075-1.381l-16.337-34.715v33.926c0,1.181-0.989,2.17-2.171,2.17
		h-9.483c-1.283,0-2.271-0.989-2.271-2.17v-56.997c0-1.288,0.988-2.274,2.271-2.274h12.442c0.891,0,1.678,0.595,1.977,1.385
		l16.435,35.104v-34.215c0-1.288,0.989-2.274,2.174-2.274H81.169z"/>
	<path clip-path="url(#SVGID_2_)" fill="#FFFFFF" d="M139.617,195.623c0,23.276-13.43,31.459-24.984,31.459
		c-11.455,0-24.888-8.183-24.888-31.459c0-23.271,13.433-31.556,24.888-31.556C126.187,164.067,139.617,172.353,139.617,195.623
		 M124.411,195.623c0-8.777-1.683-19.134-9.778-19.134c-8,0-9.679,10.356-9.679,19.134c0,6.904,1.087,12.033,3.158,15.286
		c1.583,2.563,3.754,3.748,6.521,3.748C122.728,214.657,124.411,204.304,124.411,195.623"/>
	<path clip-path="url(#SVGID_2_)" fill="#FFFFFF" d="M189.418,224.125c0,0.394-0.194,0.886-0.496,1.281
		c-0.392,0.591-1.084,0.889-1.776,0.889h-11.058c-0.988,0-1.878-0.591-2.174-1.58l-5.628-18.539
		c-0.987-3.257-4.091-4.438-7.349-4.438h-0.1c0.1,0,0,22.387,0,22.387c0,1.181-0.987,2.17-2.273,2.17h-10.468
		c-1.184,0-2.172-0.989-2.172-2.17v-57.097c0-1.188,0.988-2.175,2.172-2.175h20.162c12.147,0,19.159,6.218,19.159,17.162
		c0,8.675-5.571,11.442-10.508,13.999c1.187,1.188,3.634,2.021,4.906,5.53l7.409,21.889
		C189.32,223.63,189.418,223.829,189.418,224.125 M173.729,183.201c0-4.638-3.104-5.915-8.632-5.915h-4.26v12.322h4.26
		C169.837,189.608,173.729,187.44,173.729,183.201"/>
	<path clip-path="url(#SVGID_2_)" fill="#FFFFFF" d="M259.364,164.854c0.693,0,1.284,0.303,1.779,0.794
		c0.395,0.494,0.491,1.182,0.395,1.872l-11.754,56.999c-0.194,1.083-1.088,1.776-2.17,1.776h-12.547
		c-1.082,0-1.972-0.693-2.168-1.776l-6.419-35.502l-6.915,35.502c-0.196,1.083-1.084,1.776-2.171,1.776H205.05
		c-0.988,0-1.976-0.693-2.173-1.776l-11.455-57.099c-0.197-0.591,0-1.278,0.394-1.772c0.494-0.491,1.085-0.794,1.777-0.794h9.779
		c1.083,0,1.974,0.694,2.172,1.779l6.024,32.938l6.42-32.938c0.197-1.085,1.085-1.779,2.171-1.779h12.74
		c1.086,0,1.975,0.694,2.168,1.779l6.423,33.033l6.22-33.033c0.199-1.085,1.09-1.779,2.175-1.779H259.364z"/>
	<path clip-path="url(#SVGID_2_)" fill="#FFFFFF" d="M310.713,225.405c-0.395,0.592-1.086,0.891-1.778,0.891h-10.762
		c-0.988,0-1.879-0.694-2.174-1.58l-3.456-12.13h-16.297l-3.651,12.13c-0.299,0.886-1.185,1.58-2.171,1.58h-10.469
		c-0.69,0-1.381-0.299-1.779-0.891c-0.397-0.591-0.498-1.381-0.299-2.07l19.162-56.901c0.293-0.985,1.082-1.58,2.071-1.58h11.455
		c0.988,0,1.778,0.694,2.078,1.58l18.468,57C311.304,224.125,311.204,224.814,310.713,225.405 M289.402,200.161l-4.734-16.916
		l-0.227-0.007l-5.044,16.923H289.402z"/>
	<path clip-path="url(#SVGID_2_)" fill="#FFFFFF" d="M349.351,164.854c0.689,0,1.483,0.396,1.876,0.986
		c0.199,0.398,0.298,0.793,0.298,1.188c0,0.293-0.099,0.69-0.199,0.985l-16.589,33.923v22.188c0,1.181-0.99,2.17-2.273,2.17h-10.467
		c-1.188,0-2.177-0.989-2.177-2.17v-22.487l-16.583-33.624c-0.199-0.295-0.299-0.692-0.299-0.985c0-0.396,0.1-0.79,0.392-1.188
		c0.398-0.591,1.089-0.986,1.88-0.986h11.258c0.887,0,1.58,0.396,1.972,1.188l9.088,18.54l8.491-18.44
		c0.397-0.793,1.188-1.288,2.074-1.288H349.351z"/>
	<path clip-path="url(#SVGID_2_)" fill="#FFFFFF" d="M45.409,260.303h-5.107v8.808h-3.403v-22.406h8.51
		c4.379,0,7.184,2.899,7.184,6.799C52.592,257.403,49.788,260.303,45.409,260.303 M45.218,249.759h-4.917v7.458h4.917
		c2.364,0,3.97-1.354,3.97-3.714C49.188,251.146,47.583,249.759,45.218,249.759"/>
	<path clip-path="url(#SVGID_2_)" fill="#FFFFFF" d="M69.565,266.907c-1.544,1.543-3.529,2.396-5.923,2.396
		c-2.395,0-4.35-0.853-5.894-2.396c-2.207-2.201-2.174-4.687-2.174-9.001c0-4.31-0.033-6.795,2.174-8.997
		c1.544-1.543,3.499-2.392,5.894-2.392c2.394,0,4.379,0.849,5.923,2.392c2.207,2.202,2.145,4.688,2.145,8.997
		C71.71,262.221,71.772,264.706,69.565,266.907 M66.982,250.953c-0.789-0.85-2.019-1.385-3.34-1.385
		c-1.324,0-2.554,0.535-3.342,1.385c-1.103,1.196-1.324,2.456-1.324,6.953c0,4.505,0.221,5.761,1.324,6.955
		c0.788,0.853,2.018,1.388,3.342,1.388c1.321,0,2.551-0.535,3.34-1.388c1.103-1.194,1.323-2.45,1.323-6.955
		C68.305,253.409,68.085,252.149,66.982,250.953"/>
	<polygon clip-path="url(#SVGID_2_)" fill="#FFFFFF" points="94.415,269.109 91.452,269.109 86.884,253.41 82.346,269.109 
		79.383,269.109 73.524,246.704 77.114,246.704 81.023,262.722 85.529,246.704 88.269,246.704 92.777,262.722 96.684,246.704 
		100.278,246.704 	"/>
	<polygon clip-path="url(#SVGID_2_)" fill="#FFFFFF" points="103.222,269.109 103.222,246.704 117.56,246.704 117.56,249.758 
		106.625,249.758 106.625,256.302 115.954,256.302 115.954,259.325 106.625,259.325 106.625,266.059 117.56,266.059 117.56,269.109 
			"/>
	<path clip-path="url(#SVGID_2_)" fill="#FFFFFF" d="M134.283,269.11l-4.727-9.437H125.3v9.437h-3.404v-22.406h8.699
		c4.253,0,6.962,2.74,6.962,6.547c0,3.209-1.953,5.257-4.474,5.95l5.168,9.909H134.283z M130.34,249.759h-5.04v7.016h5.04
		c2.27,0,3.816-1.287,3.816-3.492C134.156,251.083,132.61,249.759,130.34,249.759"/>
	<polygon clip-path="url(#SVGID_2_)" fill="#FFFFFF" points="142.209,269.109 142.209,246.704 156.549,246.704 156.549,249.758 
		145.613,249.758 145.613,256.302 154.942,256.302 154.942,259.325 145.613,259.325 145.613,266.059 156.549,266.059 
		156.549,269.109 	"/>
	<path clip-path="url(#SVGID_2_)" fill="#FFFFFF" d="M174.563,267.001c-1.419,1.419-3.467,2.108-5.799,2.108h-7.878v-22.405h7.878
		c2.332,0,4.38,0.693,5.799,2.108c2.425,2.427,2.268,5.698,2.268,8.939S176.988,264.582,174.563,267.001 M172.23,251.27
		c-0.946-1.039-2.205-1.512-3.813-1.512h-4.129v16.301h4.129c1.608,0,2.867-0.47,3.813-1.509c1.166-1.293,1.197-3.713,1.197-6.798
		C173.427,254.666,173.396,252.558,172.23,251.27"/>
	<path clip-path="url(#SVGID_2_)" fill="#FFFFFF" d="M198.161,269.109h-9.075v-22.405h8.73c4.16,0,6.774,2.363,6.774,6.14
		c0,2.419-1.512,4.152-3.025,4.752c1.734,0.691,3.373,2.358,3.373,5.191C204.938,266.908,202.132,269.109,198.161,269.109
		 M197.53,249.758h-5.04v6.42h5.04c2.175,0,3.658-1.132,3.658-3.21C201.188,250.891,199.705,249.758,197.53,249.758
		 M197.847,259.231h-5.357v6.827h5.357c2.364,0,3.687-1.445,3.687-3.431C201.534,260.644,200.21,259.231,197.847,259.231"/>
	<polygon clip-path="url(#SVGID_2_)" fill="#FFFFFF" points="216.694,259.892 216.694,269.109 213.292,269.109 213.292,259.892 
		206.579,246.704 210.296,246.704 214.993,256.558 219.688,246.704 223.407,246.704 	"/>
	<polygon clip-path="url(#SVGID_2_)" fill="#FFFFFF" points="247.185,269.109 236.815,253.348 236.815,269.109 233.413,269.109 
		233.413,246.704 236.532,246.704 246.898,262.441 246.898,246.704 250.302,246.704 250.302,269.109 	"/>
	<path clip-path="url(#SVGID_2_)" fill="#FFFFFF" d="M268.726,269.109l-1.546-4.497h-8.854l-1.543,4.497h-3.627l8.227-22.405h2.74
		l8.223,22.405H268.726z M262.829,251.773l-3.496,9.943h6.901L262.829,251.773z"/>
	<polygon clip-path="url(#SVGID_2_)" fill="#FFFFFF" points="280.905,249.759 280.905,269.11 277.503,269.11 277.503,249.759 
		271.326,249.759 271.326,246.704 287.082,246.704 287.082,249.759 	"/>
	<path clip-path="url(#SVGID_2_)" fill="#FFFFFF" d="M298.322,269.303c-4.572,0-8.037-3.116-8.037-7.744v-14.854h3.403v14.698
		c0,2.989,1.828,4.847,4.634,4.847c2.805,0,4.665-1.857,4.665-4.847v-14.698h3.403v14.854
		C306.391,266.187,302.892,269.303,298.322,269.303"/>
	<path clip-path="url(#SVGID_2_)" fill="#FFFFFF" d="M323.96,269.11l-4.726-9.437h-4.258v9.437h-3.402v-22.406h8.699
		c4.252,0,6.961,2.74,6.961,6.547c0,3.209-1.954,5.257-4.473,5.95l5.169,9.909H323.96z M320.019,249.759h-5.042v7.016h5.042
		c2.271,0,3.813-1.287,3.813-3.492C323.832,251.083,322.289,249.759,320.019,249.759"/>
	<polygon clip-path="url(#SVGID_2_)" fill="#FFFFFF" points="331.887,269.109 331.887,246.704 346.225,246.704 346.225,249.758 
		335.293,249.758 335.293,256.302 344.62,256.302 344.62,259.325 335.293,259.325 335.293,266.059 346.225,266.059 346.225,269.109 
			"/>
</g>
</svg>
