<svg width="250" height="131" viewBox="0 0 396 207.305" xmlns="http://www.w3.org/2000/svg">
	<path fill="#121820" d="M358.43,207.31H37.57c-12.2,0-22.17-10.5-22.17-23.33L0,23.33C0,10.5,10,0,22.17,0H373.83C386,0,396,10.5,396,23.33L380.6,184C380.6,196.81,370.62,207.31,358.43,207.31Z"/>
	<path fill="#cd9700" d="M80.77,68.6v1.88H74.9V90.94L73,88.72V68.6Zm10.82,72-.33.28-5.17,4.45-.27.23H68.89l2.25,1.88H88.31L93.48,143V113.79l-1.88-2.22v29.05ZM74.9,136V123.65H73V136ZM91.59,83.66v.94H84.54v1.88h8.94V67.12L91.59,65.5ZM108,119.15l-2.6,25.58-.09.85H98.5l-.19,1.88h8.94l2.65-26.1,3-1.48-.26-3Zm9.28-56.36,8.22,81.75.1,1h-6.9l.16,1.88h8.52l-8.52-84.67ZM140.57,136V62.91h-1.88V136Zm10.27,8.64v.94h-19.2v1.88h21.09v-7.7h-1.88ZM179.7,67.78v.94h-9.5v76.86h-7.05v1.88h8.94V70.61h9.5v-7.7H179.7Zm-26,.94v1.88h5.73V68.72Zm70.89,67.21V62.85h-1.88v73.09Zm10.27,8.64v.94H215.6v1.88h21.09v-7.7h-1.88Zm49-62.29V62.73H282V86.51ZM282,144.58v.94h-7.05v1.88h8.94V117.73L282,111.38Zm21.59-81.49-15,33.44,14,47.17.36,1.21h-8.07l.56,1.88h9.62L290.71,96.87l14.67-32.12.25-1.67ZM333,70.55v-7.7h-1.88v5.81H316.45V97.21h1.88V70.55Zm-4.68,36.24H316.45v29.15h1.88V108.67h11.87V101h-1.88v5.81Zm2.79,38.73H309.4v1.88H333v-7.7h-1.88v5.81Zm-79.88-26.43-2.6,25.58-.09.85h-6.78l-.19,1.88h8.94l2.65-26.1,3-1.48-.26-3Zm9.28-56.36,8.22,81.75.1,1H262l.16,1.88h8.52l-8.52-84.67Z"/>
	<path fill="#fff" d="M182.56,114.64l-2.72.39L178,96.29l1.88-.27,1.31,12.91,1.28-13.28,2-.29Zm15.69-21.35V112.4l2-.29V93Zm-12,1.72v19.11l2-.29V94.73Zm9-1.2,1.16.83V99l-2,.29V95.68L192.2,96v4.81l4.16,4.32v6.56l-1.16,1.16-3.85.55-1.19-.83v-4.35l2-.29v3.62l2.16-.31v-5.43l-4.19-4.37V95.53l1.19-1.17Zm12.47,0-2.13.3v17.26l-2,.29V94.37l-2.13.3V92.95l6.26-.9ZM85.48,59.84l5.17,4.45V83.66H81.71v-16H72.08V89.07L90.65,111v29.23l-5.17,4.45H68.31L63,140.19V120.82h9.08v16.12h9.64V112.76L63,90.63V64.29l5.31-4.45Zm39,84.79H116l-2.51-29.23-6.42,3.13-2.65,26.1H95.48L103.86,60H116Zm-16.62-34,4.75-3.13L110.29,86.3Zm29.83,26.34h12.15v7.7H128.8V60.08h8.94Zm41-69.16h-9.5v76.86h-8.94V67.78h-9.5v-7.7h27.93Zm43,69.1h12.15v7.7H212.78V60h8.94ZM281,90.93l13.69-30.67h9.08l-16.2,36.2L301.69,144h-9.08L281,104.89v39.69h-8.94V59.9H281Zm49.15-23.21H315.51V98.15h11.87v7.7H315.51v31h14.66v7.7h-23.6V60h23.6Zm-62.37,76.86h-8.52l-2.51-29.23-6.42,3.13-2.65,26.1h-8.94l8.38-84.67h12.15Zm-16.62-34,4.75-3.13-2.37-21.17Z"/>
</svg>