<svg xmlns="http://www.w3.org/2000/svg" viewBox="0 0 204.95 50.4"><defs><style>.cls-1{fill:#ed1c24;}.cls-2{fill:#231f20;}</style></defs><title>logo</title><g id="Layer_2" data-name="Layer 2"><g id="Layer_1-2" data-name="Layer 1"><path class="cls-1" d="M47.87,0a11.18,11.18,0,0,1,6.52,1.5,14.27,14.27,0,0,1,1.4.9,33.76,33.76,0,0,1,2.59,2.27c.18.24,2,2.46,2,2.46S62.16,5.29,62.48,5A11.9,11.9,0,0,1,63.9,3.81a34.28,34.28,0,0,1,3.58-2.35A11.27,11.27,0,0,1,70.79.33L71.91.18c3.17-.46,7.26.82,9.58,2.16a14.43,14.43,0,0,1,5.7,6.38c.3.6,1,2.22,1.12,2.62A20,20,0,0,1,89,18.9a22.91,22.91,0,0,1-4,11.08c-.39.52-1.27,2-2.35,3.32a67,67,0,0,1-14.22,13c-1.5.95-7.24,4.09-7.24,4.09s-6-3.33-6.94-3.92C48.14,42.73,41.46,37.4,37.73,31.4a32.56,32.56,0,0,1-3.65-6.76,29.1,29.1,0,0,1-1-3.49,20.32,20.32,0,0,1,.42-9.59A23.3,23.3,0,0,1,35,7.82C37,3.91,40.72,1.34,45.64.34A16.34,16.34,0,0,1,47.87,0Z"/><path class="cls-2" d="M204.43,2.08A3.3,3.3,0,0,0,202.15.75c-2.52-.29-4.74.24-7.2.25s-5.2,0-7.78,0c-2.18,0-4.55-.57-6.57,0a3,3,0,0,0-1.87,1.91,3.37,3.37,0,0,0,2.64,4.51,8,8,0,0,0,1.9.16,5.68,5.68,0,0,1,1.66-.11c.66.11,1,.44.62,1.12a1.53,1.53,0,0,1-.29.49c-.09.07-1.62,2.77-1.72,3A29.07,29.07,0,0,1,181.91,15c-1.34,2.27-2.67,4.5-4,6.75-.12.22-1,1.44-1,1.44s-.15-.07-.41-.54c-1.93-3.47-3.93-6.91-5.93-10.38-.56-1-2-3.25-2-3.32a1.31,1.31,0,0,1-.21-1,1.42,1.42,0,0,1,.29-.38c.67-.37,1.53,0,2.19-.05a14.66,14.66,0,0,0,1.73-.2A3.24,3.24,0,0,0,175,3.5,3.25,3.25,0,0,0,173.46,1a6.22,6.22,0,0,0-3.12-.43c-4.5.45-9.1,0-13.72.2-1.52.08-3.18-.37-4.74-.12a4.74,4.74,0,0,0-2,.63c-1.25.91-1.52,3.34-.59,4.76,1.46,2.25,5.16.84,8,1.44a5.44,5.44,0,0,1,1.76.84,5.17,5.17,0,0,1,1.06.75c.34.46.57.73.81,1.1.84,1.31,1.58,2.73,2.5,3.93s1.54,2.55,2.32,3.79c1.49,2.38,3,4.7,4.42,7.18.76,1.36,1.77,2.61,2.53,4a5.2,5.2,0,0,1,.69,1.19,4.93,4.93,0,0,1,0,1.51c-.1,1.3,0,2.77-.09,4.15-.12,1.69.12,3.29-.83,4.18s-2.84.92-4.45.72c-2.67-.34-5.07,1.6-4.06,4.26a2.41,2.41,0,0,0,.7,1.2c.16.1.24.26.38.38a3.57,3.57,0,0,0,1.71.77,24.28,24.28,0,0,0,5.26-.27c.94-.12,1.81,0,2.68,0a64.75,64.75,0,0,1,10.58.31,24.62,24.62,0,0,0,2.75-.11,3.36,3.36,0,0,0,1.51-.88c1.17-1.3,1.6-3.73,0-4.94a4.87,4.87,0,0,0-2.84-.86c-1.58,0-4.16.69-5.21-.43a3.1,3.1,0,0,1-.68-1.51,35,35,0,0,1,0-5.53,13.33,13.33,0,0,1,.13-3.27,8.07,8.07,0,0,1,.84-1.4c.12-.21,1.64-2.52,2.17-3.46,2.2-3.9,4.74-7.62,7-11.46,1-1.65,2.06-4,3.57-5.12a4.42,4.42,0,0,1,1.28-.56c.21,0,.62-.09.62-.09,2.71-.71,6.14.72,7.85-1.42a7.51,7.51,0,0,0,.72-2A3.7,3.7,0,0,0,204.43,2.08ZM145.16.46a21.78,21.78,0,0,0-5.78.2c-.77.08-2.73,0-2.95,0a7.48,7.48,0,0,1-1.63.13c-1.23-.13-2.63,0-3.9-.11A9,9,0,0,0,128.7.53l-.25-.07a13.3,13.3,0,0,0-1.87-.07c-3.44-.26-6.16,1-5.37,4.6a2.11,2.11,0,0,0,.88,1.15A5.27,5.27,0,0,0,125,7.23c2,.15,4.38-.59,5.44.86a3.34,3.34,0,0,1,.52,1.53c.09,1,0,2.11,0,3.09,0,.08.13,4.84,0,6.61a26.85,26.85,0,0,0,0,3.47c.07,1.21-.06,2.53-.05,3.79s.09,2.74,0,4.15a37.59,37.59,0,0,0-.15,4.3c0,.48.05,2.11.05,2.11s-2.44-5.32-2.76-6.18-1-2-1.38-3c-.84-2-1.62-4-2.5-6a23.44,23.44,0,0,1-1.11-2.39c-.76-2.53-2.1-4.81-3-7.2-.56-1.43-1.21-2.78-1.81-4.11-1.29-2.87-2.09-5.79-4.72-7.31-1.87-1.08-7.17-.5-9.7-.58-1.49,0-3.11-.09-4.69-.07a5,5,0,0,0-.7-.09,7.39,7.39,0,0,0-1.51.18,3.42,3.42,0,0,0-2.53,3.86,6.5,6.5,0,0,0,.81,1.67c1.29,2.6,7.64-.25,8.4,2.37a14.25,14.25,0,0,1,.14,2.26,47.26,47.26,0,0,1,0,5.15s0,.42,0,.61c.07.85,0,1.69,0,2.59.16,2.46-.25,4.89-.05,7.44.08,1.11,0,2.21,0,4.43,0,.37.07,1.71,0,2.14-.12,1.57.14,3.17-.07,4.71a5.68,5.68,0,0,1-.23,1.62c-.53,1.12-2.37,1.53-4,1.4a8.21,8.21,0,0,0-1.78-.2,4.73,4.73,0,0,0-2.5.88,3.58,3.58,0,0,0-.88,1.53,3.71,3.71,0,0,0,.63,3.39c1.38,1.86,4.89.55,7.24.83A13.72,13.72,0,0,0,103.7,47l4.24,0a29.09,29.09,0,0,1,4.47.22c.81.12,1.53,0,2.25.14.44.08,1.06-.08,1.51,0a5.8,5.8,0,0,0,2.66-.34,3.39,3.39,0,0,0,1.38-4.51c-1.95-3.51-6.56-.38-8.66-2.71a1.46,1.46,0,0,1-.11-.22c-.91-1.58-.31-4.49-.39-6.61-.17-4.28-.08-8,0-12.19,0-2.13-.09-4.78.05-7,.07-1.08-.31-2.57,0-3.7.47.17,2.19,4.85,2.57,5.66.71,1.5,1.27,3.06,1.94,4.63s1.42,3.14,2,4.81c.23.6.65,1.25.88,1.87,1.1,2.89,2.49,5.63,3.61,8.48a79.51,79.51,0,0,0,4.24,9.7A6.13,6.13,0,0,0,130,48a6.82,6.82,0,0,0,5.67-.79,5.29,5.29,0,0,0,2-2.87,6.8,6.8,0,0,1,.2-.77c.54-1.41.11-4.38.18-6.07.08-2.09-.08-4.39.09-6.61.08-1.05-.11-1.85,0-2.86a31.84,31.84,0,0,0,.09-4c-.11-1.64.12-3.23,0-4.87-.06-.83,0-4,0-4.44-.07-1.29.14-2.39.06-3.5a6.5,6.5,0,0,1,0-2.14,2.51,2.51,0,0,1,.57-1c1.67-1.44,5.65.08,7.49-1.24a3.45,3.45,0,0,0,1.33-4.51A3.38,3.38,0,0,0,145.16.46ZM26.67,42.7a2.5,2.5,0,0,0-.34-.61c-1.7-2.64-6.66.07-8.27-2.19A4.71,4.71,0,0,1,17.49,38a25,25,0,0,1,0-3.79c0-1.92-.08-3.74,0-5.75A31.37,31.37,0,0,0,17.31,24c-.06-.55.1-1.2,0-1.82-.1-.82,0-1.77-.05-2.62-.11-1.84-.07-3.61-.09-5.46,0-1.5-.42-4.93.31-6,1.1-1.68,4-.53,6.2-1A3.44,3.44,0,0,0,26.1,2,2.91,2.91,0,0,0,23.55.27a2.65,2.65,0,0,0-.74-.14A93.61,93.61,0,0,1,10.59.54C8.83.45,7,.49,5.18.39A11.5,11.5,0,0,0,3,.39,3.44,3.44,0,0,0,.58,1.71a3.12,3.12,0,0,0-.41.9A3.59,3.59,0,0,0,.88,6.06,3.92,3.92,0,0,0,3.06,7.21C5,7.45,8.51,6.49,9.48,8a3.63,3.63,0,0,1,.43,1.4c.12,1-.07,1.81,0,2.77.18,2.38,0,4.9.09,7.35,0,0,0,5.79.09,8.18,0,1.55.18,3.58.05,5.25-.14,1.87.47,5.29-.34,6.62-1.27,2.08-4.37.6-6.76,1.35a4.64,4.64,0,0,0-1.24.45c-1.25.85-1.52,3-.68,4.49a3.31,3.31,0,0,0,2.37,1.47,8.84,8.84,0,0,0,2.19-.09c1.54-.09,3.32-.11,4.87-.27a31.14,31.14,0,0,1,5.37,0c1.72.14,3.42,0,5.25.13a10.67,10.67,0,0,0,4-.24,2.83,2.83,0,0,0,.47-.25,3.29,3.29,0,0,0,1.17-3.56C26.73,42.93,26.71,42.83,26.67,42.7Z"/><path class="cls-2" d="M196.27,41a3,3,0,1,1-3,3,3,3,0,0,1,3-3Zm0,.47a2.55,2.55,0,0,0,0,5.09,2.55,2.55,0,0,0,0-5.09Zm-.56,4.29h-.53V42.37a6,6,0,0,1,.95-.08,1.76,1.76,0,0,1,1,.25.8.8,0,0,1,.31.69.83.83,0,0,1-.66.82v0c.29.05.5.32.56.82a2.75,2.75,0,0,0,.21.83H197a2.46,2.46,0,0,1-.23-.86.63.63,0,0,0-.72-.59h-.37Zm0-1.86h.39c.44,0,.82-.16.82-.58s-.21-.59-.82-.59a2.72,2.72,0,0,0-.39,0Z"/></g></g></svg>