<svg id="Layer_1" data-name="Layer 1" xmlns="http://www.w3.org/2000/svg" xmlns:xlink="http://www.w3.org/1999/xlink" viewBox="0 0 509.08 167.84"><defs><style>.cls-1{fill:url(#linear-gradient);}.cls-2{fill:url(#linear-gradient-2);}.cls-3{fill:url(#linear-gradient-3);}.cls-4{fill:url(#linear-gradient-4);}.cls-5{fill:url(#linear-gradient-5);}.cls-6{fill:url(#linear-gradient-6);}.cls-7{fill:url(#linear-gradient-7);}.cls-8{fill:url(#linear-gradient-8);}.cls-9{fill:url(#linear-gradient-9);}.cls-10{fill:url(#linear-gradient-10);}.cls-11{fill:url(#linear-gradient-11);}.cls-12{fill:url(#linear-gradient-12);}.cls-13{fill:url(#linear-gradient-13);}.cls-14{fill:url(#linear-gradient-14);}.cls-15{fill:url(#linear-gradient-15);}.cls-16{fill:url(#linear-gradient-16);}.cls-17{fill-rule:evenodd;fill:url(#radial-gradient);}.cls-18{fill:url(#linear-gradient-17);}.cls-19{fill:url(#linear-gradient-18);}</style><linearGradient id="linear-gradient" x1="69.01" y1="453.51" x2="69.01" y2="406.4" gradientUnits="userSpaceOnUse"><stop offset="0" stop-color="#0b0b56"/><stop offset="1" stop-color="#0c2c84"/></linearGradient><linearGradient id="linear-gradient-2" x1="94.03" y1="454.28" x2="94.03" y2="419.19" xlink:href="#linear-gradient"/><linearGradient id="linear-gradient-3" x1="129.82" y1="454.28" x2="129.82" y2="419.96" xlink:href="#linear-gradient"/><linearGradient id="linear-gradient-4" x1="160.81" y1="453.51" x2="160.81" y2="419.19" xlink:href="#linear-gradient"/><linearGradient id="linear-gradient-5" x1="176.26" y1="453.51" x2="176.26" y2="407.45" xlink:href="#linear-gradient"/><linearGradient id="linear-gradient-6" x1="196.56" y1="454.21" x2="196.56" y2="419.19" xlink:href="#linear-gradient"/><linearGradient id="linear-gradient-7" x1="238.28" y1="453.51" x2="238.28" y2="419.19" xlink:href="#linear-gradient"/><linearGradient id="linear-gradient-8" x1="284.64" y1="454.23" x2="284.64" y2="404" xlink:href="#linear-gradient"/><linearGradient id="linear-gradient-9" x1="317.32" y1="454.3" x2="317.32" y2="417.68" xlink:href="#linear-gradient"/><linearGradient id="linear-gradient-10" x1="348.3" y1="454.23" x2="348.3" y2="417.68" xlink:href="#linear-gradient"/><linearGradient id="linear-gradient-11" x1="380.87" y1="453.51" x2="380.87" y2="402.11" xlink:href="#linear-gradient"/><linearGradient id="linear-gradient-12" x1="411.06" y1="454.3" x2="411.06" y2="417.68" xlink:href="#linear-gradient"/><linearGradient id="linear-gradient-13" x1="439.4" y1="454.23" x2="439.4" y2="410.08" xlink:href="#linear-gradient"/><linearGradient id="linear-gradient-14" x1="468.35" y1="454.3" x2="468.35" y2="417.68" xlink:href="#linear-gradient"/><linearGradient id="linear-gradient-15" x1="506.35" y1="454.3" x2="506.35" y2="417.68" xlink:href="#linear-gradient"/><linearGradient id="linear-gradient-16" x1="545.98" y1="453.51" x2="545.98" y2="417.68" xlink:href="#linear-gradient"/><radialGradient id="radial-gradient" cx="312.64" cy="289.58" r="38.5" gradientUnits="userSpaceOnUse"><stop offset="0" stop-color="#ffbf00"/><stop offset="0.48" stop-color="#ff1a00"/><stop offset="0.88" stop-color="#810171"/></radialGradient><linearGradient id="linear-gradient-17" x1="412.85" y1="334.66" x2="107.95" y2="334.66" gradientUnits="userSpaceOnUse"><stop offset="0" stop-color="#ffb300"/><stop offset="0.38" stop-color="#ff1a00"/><stop offset="0.53" stop-color="#de141d"/><stop offset="0.85" stop-color="#9b0659"/><stop offset="0.99" stop-color="#810171"/></linearGradient><linearGradient id="linear-gradient-18" x1="178.81" y1="528.47" x2="524.7" y2="528.47" gradientTransform="matrix(0.99, -0.13, 0.13, 0.99, -110.65, -111.38)" gradientUnits="userSpaceOnUse"><stop offset="0" stop-color="#0e3192"/><stop offset="0.46" stop-color="#026f6e"/><stop offset="1" stop-color="#66b821"/></linearGradient></defs><title>logo</title><path class="cls-1" d="M67.33,409.2H52v-2.8H86.07v2.8H70.69v44.31H67.33Z" transform="translate(-51.96 -286.47)"/><path class="cls-2" d="M93.68,454.28c-8.66,0-15.37-6.78-15.37-17.26,0-11.47,7.55-17.83,15.86-17.83,9.3,0,15.59,7,15.59,17.26,0,12.45-8.6,17.83-16,17.83Zm.21-2.8c7,0,12.51-6.29,12.51-14.88,0-6.16-3.42-14.61-12.3-14.61-8.6,0-12.44,7.62-12.44,14.82,0,8.38,5.31,14.67,12.16,14.67Z" transform="translate(-51.96 -286.47)"/><path class="cls-3" d="M142.75,445.33c0,2.94.07,5.59.28,8.18h-3.15l-.21-6h-.14a12.9,12.9,0,0,1-11.46,6.78c-4.27,0-11.46-2.17-11.46-14.82V420H120v18.87c0,7.27,2.24,12.51,8.88,12.51a11.08,11.08,0,0,0,9.92-6.78,12,12,0,0,0,.63-3.7V420h3.36Z" transform="translate(-51.96 -286.47)"/><path class="cls-4" d="M153.93,430c0-3.35-.07-6.78-.28-10.06h3.07l.14,6.78h.21c1.47-4.26,5-7.55,9.51-7.55a8.49,8.49,0,0,1,1.39.14v3.15a11.14,11.14,0,0,0-1.6-.07c-4.62,0-7.9,4-8.81,9.36a15.76,15.76,0,0,0-.28,3.22v18.52h-3.35Z" transform="translate(-51.96 -286.47)"/><path class="cls-5" d="M176.15,413.25a2.69,2.69,0,0,1-2.58-2.86,2.86,2.86,0,0,1,2.72-2.94,2.77,2.77,0,0,1,2.66,2.94,2.72,2.72,0,0,1-2.73,2.86Zm-1.54,40.26V420H178v33.55Z" transform="translate(-51.96 -286.47)"/><path class="cls-6" d="M187.82,449.11a15,15,0,0,0,7.55,2.3c5.31,0,7.83-2.87,7.83-6.36,0-3.7-2.24-5.66-7.06-7.62-5.52-2.09-8.53-5.1-8.53-9.15,0-4.89,3.85-9.09,10.35-9.09a13.14,13.14,0,0,1,7.41,2.1L204.11,424a11.39,11.39,0,0,0-6.71-2c-4.27,0-6.5,2.72-6.5,5.8,0,3.49,2.38,5,6.92,6.85,5.45,2.17,8.66,4.89,8.66,10,0,5.73-4.47,9.58-11.32,9.58a16.49,16.49,0,0,1-8.53-2.31Z" transform="translate(-51.96 -286.47)"/><path class="cls-7" d="M215.29,428c0-3.08-.07-5.39-.28-8h3.15l.2,5.87h.14c2.17-3.84,5.38-6.64,10.9-6.64,4.62,0,8.18,3.08,9.65,7.27h.14a13.24,13.24,0,0,1,3.42-4.54,11.58,11.58,0,0,1,8-2.73c3.29,0,11,1.82,11,14.54v19.78H258.2V434c0-7.55-2.93-12-8.73-12-4.2,0-7.49,3.14-8.81,6.64a12,12,0,0,0-.56,3.35v21.53h-3.36v-21c0-6-2.86-10.48-8.31-10.48-4.48,0-8,3.63-9.3,7.54a12.08,12.08,0,0,0-.49,3.29v20.69h-3.35Z" transform="translate(-51.96 -286.47)"/><path class="cls-8" d="M271.57,445.83A22,22,0,0,0,282.79,449c6.44,0,10.21-3.33,10.21-8.25,0-4.56-2.61-7.24-9.19-9.71-8-2.75-12.89-6.94-12.89-13.75,0-7.6,6.3-13.24,15.78-13.24a22.93,22.93,0,0,1,10.71,2.31l-1.73,5.21a18.12,18.12,0,0,0-9.2-2.31c-6.66,0-9.19,4-9.19,7.31,0,4.49,3,6.73,9.7,9.34,8.25,3.25,12.38,7.16,12.38,14.33,0,7.46-5.51,14-17,14-4.7,0-9.84-1.45-12.44-3.18Z" transform="translate(-51.96 -286.47)"/><path class="cls-9" d="M330.78,445.11a59.1,59.1,0,0,0,.51,8.4h-5.72l-.58-4.42h-.22a12.94,12.94,0,0,1-10.71,5.21c-7.09,0-10.71-5-10.71-10.06,0-8.46,7.52-13.1,21.06-13v-.72c0-2.89-.79-8.18-8-8.11a16.83,16.83,0,0,0-9.19,2.61l-1.45-4.27a22.68,22.68,0,0,1,11.58-3c10.79,0,13.39,7.31,13.39,14.33Zm-6.22-9.48c-6.95-.15-14.84,1.08-14.84,7.89,0,4.2,2.75,6.08,5.93,6.08a8.85,8.85,0,0,0,8.62-5.87,6.67,6.67,0,0,0,.29-2Z" transform="translate(-51.96 -286.47)"/><path class="cls-10" d="M338.38,447a18,18,0,0,0,8.47,2.46c4.56,0,6.73-2.24,6.73-5.21s-1.81-4.63-6.44-6.37c-6.37-2.31-9.34-5.79-9.34-9.91,0-5.65,4.64-10.28,12.09-10.28a16.25,16.25,0,0,1,8.54,2.17l-1.52,4.56a14.28,14.28,0,0,0-7.16-2c-3.77,0-5.8,2.17-5.8,4.78,0,2.9,2,4.2,6.59,6,6,2.24,9.2,5.28,9.2,10.49,0,6.23-4.85,10.57-13,10.57a20,20,0,0,1-9.85-2.46Z" transform="translate(-51.96 -286.47)"/><path class="cls-11" d="M372.55,434.54h.14c.87-1.23,2-2.75,3-4l10.35-12.09h7.61l-13.54,14.41,15.42,20.63h-7.75l-12-16.8-3.25,3.62v13.18h-6.37v-51.4h6.37Z" transform="translate(-51.96 -286.47)"/><path class="cls-12" d="M424.52,445.11a59.1,59.1,0,0,0,.51,8.4h-5.72l-.58-4.42h-.22a12.93,12.93,0,0,1-10.71,5.21c-7.1,0-10.71-5-10.71-10.06,0-8.46,7.53-13.1,21.06-13v-.72c0-2.89-.79-8.18-8-8.11A16.83,16.83,0,0,0,401,425l-1.45-4.27a22.68,22.68,0,0,1,11.58-3c10.78,0,13.39,7.31,13.39,14.33Zm-6.23-9.48c-6.94-.15-14.83,1.08-14.83,7.89,0,4.2,2.75,6.08,5.93,6.08a8.85,8.85,0,0,0,8.62-5.87,6.66,6.66,0,0,0,.28-2Z" transform="translate(-51.96 -286.47)"/><path class="cls-13" d="M440.66,410.08v8.39h9.12v4.85h-9.12v18.82c0,4.35,1.23,6.81,4.78,6.81a11.82,11.82,0,0,0,3.69-.44l.29,4.85a17.17,17.17,0,0,1-5.64.87,9.07,9.07,0,0,1-6.88-2.68c-1.74-1.95-2.46-5.06-2.46-9.19v-19H429v-4.85h5.43V412Z" transform="translate(-51.96 -286.47)"/><path class="cls-14" d="M468,454.3c-9.41,0-16.79-6.95-16.79-18,0-11.73,7.75-18.6,17.37-18.6,10.06,0,16.87,7.31,16.87,17.95,0,13-9.05,18.67-17.38,18.67Zm.29-4.77c6.08,0,10.65-5.72,10.65-13.68,0-5.94-3-13.4-10.5-13.4s-10.71,6.95-10.71,13.61c0,7.67,4.34,13.47,10.49,13.47Z" transform="translate(-51.96 -286.47)"/><path class="cls-15" d="M506,454.3c-9.41,0-16.8-6.95-16.8-18,0-11.73,7.75-18.6,17.37-18.6,10.07,0,16.87,7.31,16.87,17.95,0,13-9.05,18.67-17.37,18.67Zm.29-4.77c6.08,0,10.64-5.72,10.64-13.68,0-5.94-3-13.4-10.5-13.4s-10.71,6.95-10.71,13.61c0,7.67,4.34,13.47,10.49,13.47Z" transform="translate(-51.96 -286.47)"/><path class="cls-16" d="M531.22,428c0-3.69-.08-6.59-.29-9.49h5.64l.37,5.72h.14a13,13,0,0,1,11.58-6.51c4.85,0,12.38,2.89,12.38,14.91v20.92h-6.37v-20.2c0-5.64-2.1-10.42-8.11-10.42A9.2,9.2,0,0,0,538,429.4a9.51,9.51,0,0,0-.43,3v21.14h-6.37Z" transform="translate(-51.96 -286.47)"/><path class="cls-17" d="M284.61,296.37a57.51,57.51,0,0,1,10.49-2.3,30.31,30.31,0,0,1,5-.08.5.5,0,0,1,.33.8l-.38.44c-6.31,6.4-4.29,14.07,5,17.77,9.89,3.94,24.33,1.78,32.25-4.84s6.33-15.17-3.56-19.1a25.33,25.33,0,0,0-4.61-1.34,52.67,52.67,0,0,0-18.58-.79c-8.4,1.05-19.81,3.77-26.63,8.4a.61.61,0,0,0-.24.77C283.74,296.35,284,296.55,284.61,296.37Z" transform="translate(-51.96 -286.47)"/><path class="cls-18" d="M109.71,335.71c10.23,5.21,29.58,8.06,73.73.14,13.94-2.5,38.38-6.8,57.44,2.72,23,11.48,39,16.89,89.39,5,23.55-5.56,62.47-15.78,79.69-1.45.73.61,1.57,1.58,2.18,1.2s1.16-1.23.27-3.06a31.24,31.24,0,0,0-12-12.51c-24.2-14-51.57-8.6-89.59-1.23s-48.87,15.95-79.22,4.21c-16.55-6.4-30.35-10-56.91-3.13-23.51,6.06-40.16,11.83-62.16,6.7-1.35-.32-2.51-.57-3-.08A.84.84,0,0,0,109.71,335.71Z" transform="translate(-51.96 -286.47)"/><path class="cls-19" d="M130.53,353.27c11.54,6.63,33.94,11.58,85.8,5.41,16.38-1.95,45.08-5.28,66.59,7.1,25.94,14.92,44.17,22.31,103.57,12,27.76-4.84,73.79-14.12,92.82,3.72.82.77,1.62,1.7,2.41,1.53s1.35-1.05.37-3.42a36.2,36.2,0,0,0-12.95-15.4c-27.18-18-59.36-13.54-104.07-7.58s-57.9,15.19-92.38-.54c-18.8-8.57-34.58-13.68-65.94-7.55-27.75,5.44-47.54,11.09-72.77,3.61-1.54-.45-2.85-.94-3.5-.41A.93.93,0,0,0,130.53,353.27Z" transform="translate(-51.96 -286.47)"/></svg>