<?xml version="1.0" encoding="utf-8"?>
<!-- Generator: Adobe Illustrator 21.0.2, SVG Export Plug-In . SVG Version: 6.00 Build 0)  -->
<svg version="1.1" id="Layer_1" xmlns="http://www.w3.org/2000/svg" xmlns:xlink="http://www.w3.org/1999/xlink" x="0px" y="0px"
	 viewBox="0 0 391.4 130.7" style="enable-background:new 0 0 391.4 130.7;" xml:space="preserve">
<style type="text/css">
	.st0{fill:#000;}
</style>
<g>
	<g>
		<path id="logo_65_" class="st0" d="M77.8,91.7l-5.4-42.5l-5.4,42.5H77.8z M0,129.5v-17.8h17.9c6.5,0,6,0.1,6-5.4V2.5h20v101.6
			L61.6,2.5H83l19.3,110.4V2.5h27.6L142,80.6l12.5-78.1h26.4v113.8L200.7,2.5h21.9l19.4,112.7V2.5h20.8v126.9h-38l-4.5-19.6h-17.2
			l-4.5,19.6h-36.4v-73l-11.8,73h-16.7l-11.8-73l-0.1,73H85.4L81,109.9H63.8l-4.5,19.6H39.4l1.7-10.1c-2.8,7.1-8,10-18.3,10.2H0z
			 M217.1,91.7l-5.5-42.5l-5.4,42.5H217.1z M359.8,91.7l-5.5-42.5l-5.4,42.5H359.8z M387.1,129.5h-19.7l-4.4-19.6h-17.2l-4.5,19.6
			h-19.6l1.7-9.5c-6,7.2-13.9,10.7-23.8,10.7c-19.6,0-29.2-10-29.2-30.4V29.1c0-19.2,9.8-29.1,28.8-29.1c18.6,0,28.2,9.8,28.2,28.8
			v19.6h-20.3V28.2c0-7-2.6-10.3-7.9-10.3c-5.1,0-7.9,3.6-7.9,10.1v73.2c0,8.5,2.2,11.9,7.8,11.9c5.4,0,8-3.8,8-11.8V81h20.3v14.4
			l16.1-92.9h21.9L387.1,129.5z"/>
	</g>
	<g>
		<path id="logo_62_" class="st0" d="M77.8,91.7l-5.4-42.5l-5.4,42.5H77.8z M0,129.5v-17.8h17.9c6.5,0,6,0.1,6-5.4V2.5h20v101.6
			L61.6,2.5H83l19.3,110.4V2.5h27.6L142,80.6l12.5-78.1h26.4v113.8L200.7,2.5h21.9l19.4,112.7V2.5h20.8v126.9h-38l-4.5-19.6h-17.2
			l-4.5,19.6h-36.4v-73l-11.8,73h-16.7l-11.8-73l-0.1,73H85.4L81,109.9H63.8l-4.5,19.6H39.4l1.7-10.1c-2.8,7.1-8,10-18.3,10.2H0z
			 M217.1,91.7l-5.5-42.5l-5.4,42.5H217.1z M359.8,91.7l-5.5-42.5l-5.4,42.5H359.8z M387.1,129.5h-19.7l-4.4-19.6h-17.2l-4.5,19.6
			h-19.6l1.7-9.5c-6,7.2-13.9,10.7-23.8,10.7c-19.6,0-29.2-10-29.2-30.4V29.1c0-19.2,9.8-29.1,28.8-29.1c18.6,0,28.2,9.8,28.2,28.8
			v19.6h-20.3V28.2c0-7-2.6-10.3-7.9-10.3c-5.1,0-7.9,3.6-7.9,10.1v73.2c0,8.5,2.2,11.9,7.8,11.9c5.4,0,8-3.8,8-11.8V81h20.3v14.4
			l16.1-92.9h21.9L387.1,129.5z"/>
	</g>
</g>
</svg>
