<?xml version="1.0" encoding="utf-8"?>
<!-- Generator: Adobe Illustrator 19.0.1, SVG Export Plug-In . SVG Version: 6.00 Build 0)  -->
<svg version="1.1" id="Layer_1" xmlns="http://www.w3.org/2000/svg" xmlns:xlink="http://www.w3.org/1999/xlink" x="0px" y="0px"
	 viewBox="0 0 578 72" enable-background="new 0 0 578 72" xml:space="preserve">
<polygon id="XMLID_169_" fill="#020202" points="52.7,11.2 48.6,11.2 32.3,52.1 16.1,11.2 12,11.2 32.3,60.8 "/>
<rect id="XMLID_110_" x="65.7" y="11.2" fill="#020202" width="3.8" height="49.9"/>
<path id="XMLID_108_" fill="#020202" d="M90,59.9c2.4,1.5,5.2,2.2,8.5,2.2c4.7,0,8.4-1.3,11.1-3.7c2.7-2.5,4-5.8,4-10.2
	c0-5.6-4.7-10.9-14-15.9l-0.3-0.2c-3.4-1.8-5.7-3.5-6.9-4.9c-1.3-1.5-1.9-3.4-1.9-5.6c0-2.5,0.8-4.4,2.5-5.9
	c1.6-1.4,3.9-2.2,6.6-2.2c2,0,3.8,0.4,5.3,1.3c1.2,0.6,2.2,1.5,3,2.5l2.5-2.3c-1.2-1.6-2.6-2.8-4.2-3.6c-1.8-0.9-4-1.4-6.4-1.4
	c-4,0-7.3,1.1-9.7,3.3c-2.4,2.2-3.6,5-3.6,8.5c0,3,0.8,5.6,2.5,7.5c1.7,2,4.8,4.2,9.3,6.4c4,1.9,6.8,3.9,8.6,5.7
	c1.8,1.9,2.7,4.3,2.7,6.9c0,3.2-1,5.7-3,7.5c-2,1.8-4.7,2.7-8,2.7c-2.7,0-5.1-0.7-7.2-2c-1.7-1.1-3-2.5-3.9-4.3l-2.6,2.2
	C86.2,56.8,87.9,58.6,90,59.9z"/>
<rect id="XMLID_106_" x="129.7" y="11.2" fill="#020202" width="3.8" height="49.9"/>
<polygon id="XMLID_104_" fill="#020202" points="174.4,11.2 146.1,11.2 146.1,14.4 158.3,14.4 158.3,61.1 162.1,61.1 162.1,14.4 
	174.4,14.4 "/>
<path id="XMLID_101_" fill="#020202" d="M231.5,61.1h-13v-20h-17.9v20h-13V11.2h13v19.3h17.9V11.2h13V61.1z"/>
<path id="XMLID_98_" fill="#020202" d="M298.3,36.2c0,7.3-2.6,13.5-7.8,18.5c-5.2,5-11.6,7.5-19.2,7.5c-7.7,0-14.1-2.5-19.3-7.5
	c-5.2-5-7.8-11.1-7.8-18.5c0-7.3,2.6-13.5,7.8-18.5s11.6-7.5,19.2-7.5c7.6,0,14.1,2.5,19.2,7.5C295.7,22.6,298.3,28.8,298.3,36.2z
	 M284.7,36.2c0-3.8-1.3-7-3.8-9.6c-2.6-2.6-5.8-3.9-9.7-3.9c-4,0-7.2,1.3-9.8,3.8c-2.5,2.6-3.8,5.8-3.8,9.7c0,3.8,1.3,7,3.8,9.6
	c2.6,2.5,5.8,3.8,9.7,3.8c3.9,0,7.2-1.3,9.7-3.8C283.5,43.2,284.7,40,284.7,36.2z"/>
<path id="XMLID_96_" fill="#020202" d="M353.1,38c0,9.3-1.6,15.6-4.8,19c-3.2,3.4-8.7,5.1-16.6,5.1c-7.9,0-13.5-1.7-16.7-5.1
	c-3.2-3.4-4.8-9.7-4.8-19V11.2h13v27c0,4.9,0.6,8.2,1.8,9.9c1.2,1.7,3.4,2.6,6.6,2.6c3.2,0,5.4-0.9,6.6-2.6c1.2-1.7,1.9-5,1.9-9.9
	v-27h13V38z"/>
<path id="XMLID_94_" fill="#020202" d="M401.1,45.3c0,5.1-1.8,9.2-5.3,12.2c-3.5,3.1-8.2,4.6-14.1,4.6c-3.4,0-6.6-0.6-9.3-1.7
	c-2.8-1.2-5.5-3-8.2-5.6l6.1-9.4c1.8,2.1,3.7,3.6,5.6,4.6c1.9,1,4,1.5,6.2,1.5c1.8,0,3.3-0.5,4.4-1.4c1.1-0.9,1.7-2.2,1.7-3.7
	c0-1.6-0.5-2.9-1.6-3.8c-1-0.9-3.3-1.8-6.8-2.7c-4.6-1.2-8-3-10.2-5.3c-2.2-2.3-3.2-5.3-3.2-9.1c0-4.6,1.6-8.3,4.8-11.2
	c3.2-2.8,7.4-4.3,12.5-4.3c2.8,0,5.4,0.4,7.8,1.1c2.4,0.7,4.7,1.8,6.9,3.3l-4.3,10c-1.5-1.2-3-2.2-4.6-2.9c-1.6-0.7-3.2-1-4.9-1
	c-1.7,0-3.1,0.3-4.1,1c-1,0.7-1.5,1.6-1.5,2.7c0,2.2,2.4,4,7.3,5.2c0.3,0.1,0.6,0.2,0.7,0.2c5,1.3,8.6,3.2,10.8,5.7
	C400,38,401.1,41.2,401.1,45.3z"/>
<path id="XMLID_92_" fill="#020202" d="M442,22.6h-10.1v38.5h-13V22.6h-10.2V11.2H442V22.6z"/>
<path id="XMLID_89_" fill="#020202" d="M502.5,36.2c0,7.3-2.6,13.5-7.8,18.5c-5.2,5-11.6,7.5-19.2,7.5c-7.7,0-14.1-2.5-19.3-7.5
	s-7.8-11.1-7.8-18.5c0-7.3,2.6-13.5,7.8-18.5c5.2-5,11.6-7.5,19.2-7.5c7.6,0,14.1,2.5,19.2,7.5C499.9,22.6,502.5,28.8,502.5,36.2z
	 M489,36.2c0-3.8-1.3-7-3.8-9.6s-5.8-3.9-9.7-3.9c-4,0-7.2,1.3-9.8,3.8c-2.5,2.6-3.8,5.8-3.8,9.7c0,3.8,1.3,7,3.8,9.6
	c2.6,2.5,5.8,3.8,9.7,3.8c3.9,0,7.2-1.3,9.7-3.8C487.7,43.2,489,40,489,36.2z"/>
<path id="XMLID_87_" fill="#020202" d="M564.2,61.1h-13l-23.1-31v31h-13V11.2h13.1l23,31v-31h13V61.1z"/>
</svg>
