<?xml version="1.0" encoding="utf-8"?>
<!-- Generator: Adobe Illustrator 19.0.0, SVG Export Plug-In . SVG Version: 6.00 Build 0)  -->
<svg version="1.1" id="Layer_1" xmlns="http://www.w3.org/2000/svg" xmlns:xlink="http://www.w3.org/1999/xlink" x="0px" y="0px"
	 viewBox="0 0 778.4 153" style="enable-background:new 0 0 778.4 153;" xml:space="preserve">
<style type="text/css">
	.st0{fill:#F58545;}
	.st1{fill:#00B098;}
</style>
<g id="XMLID_2_">
	<path id="XMLID_324_" class="st0" d="M216.8,148.8h3.3l-7.2-19.6h-3.2l-7.2,19.6h3.3l1.8-5.2h7.4L216.8,148.8z M211.2,133.2
		l2.8,7.9h-5.6L211.2,133.2z M258,146.3h-0.8c-2.7,0-3-4.7-5.2-6.2c1.7-0.6,3.6-2.1,3.6-5c0-4.3-2.5-6-7.1-6h-6.6v19.6h3.2v-7.7h2.7
		c4.2,0,3,7.8,8.5,7.8c1,0,1.8-0.1,1.8-0.1V146.3z M245,138.7v-6.9h3.3c2.6,0,4,1.3,4,3.5c0,2.2-1.8,3.4-4.3,3.4H245z M282.9,148.8
		v-19.6h-3.2v19.6H282.9z M321.2,148.8v-2.6h-10.7l10.7-14.4v-2.6h-14.6v2.6h10.8l-10.8,14.4v2.6H321.2z M351,148.9
		c4.6,0,8.6-3,8.6-9.9c0-6.9-4-10-8.6-10c-4.6,0-8.6,3.1-8.6,10C342.4,145.9,346.4,148.9,351,148.9z M351,146.2
		c-2.8,0-5.3-1.9-5.3-7.2c0-5.3,2.5-7.2,5.3-7.2c2.8,0,5.3,1.9,5.3,7.2C356.3,144.2,353.8,146.2,351,146.2z M397,148.8v-19.6h-3.2
		v14.3l-8.1-14.3h-3.4v19.6h3.2v-13.9l8.1,13.9H397z M433.1,148.8h3.3l-7.2-19.6H426l-7.2,19.6h3.3l1.8-5.2h7.4L433.1,148.8z
		 M427.6,133.2l2.8,7.9h-5.6L427.6,133.2z"/>
	<path id="XMLID_3_" class="st0" d="M488.9,72.1 M220,105.1c14.2,0,21.6-9.3,21.6-18.4c0-22.4-32.7-16.8-32.7-33.9
		c0-6.7,5.6-11.8,13.4-11.8c5.9,0,9.1,2.9,9.1,2.9l6.5,9.2v-9.9c0,0-6.9-4.3-15.3-4.3c-12.7,0-20.1,8.8-20.1,17.8
		c0,22,31.2,15.4,31.2,33c0,6.7-5.6,13.3-13.4,13.3c-6.2,0-10-3.4-10-3.4l-6.7-10.2v10.2C203.5,99.6,211.1,105.1,220,105.1z
		 M514,105.1c14.2,0,21.6-9.3,21.6-18.4c0-22.4-32.7-16.8-32.7-33.9c0-6.7,5.6-11.8,13.4-11.8c5.9,0,9.1,2.9,9.1,2.9l6.5,9.2v-9.9
		c0,0-6.9-4.3-15.3-4.3c-12.7,0-20.1,8.8-20.1,17.8c0,22,31.2,15.4,31.2,33c0,6.7-5.6,13.3-13.4,13.3c-6.2,0-10-3.4-10-3.4
		l-6.7-10.2v10.2C497.6,99.6,505.2,105.1,514,105.1z M284.3,103c-6.3,0-11.5-4.7-11.8-11.8c-0.1-2.3-0.1-35.9,0-38.7
		c0.3-7,5.5-11.5,12.1-11.5c5.9,0,10.1,2.9,10.1,2.9l6.5,9.2v-9.9c0,0-7.9-4.3-16.3-4.3c-12.3,0-20.7,8.9-21.4,20.2
		c-0.3,3.5-0.2,22.9,0,25.8c0.8,11.4,8.7,20.2,21.4,20.2c8.1,0,17.1-5.5,17.1-5.5V89.4l-6.7,10.2C295.3,99.7,290.5,103,284.3,103z
		 M346.2,39c-11.7,0-20.2,8.9-20.9,20.2c-0.3,3.5-0.2,22.9,0,25.8c0.8,11.4,9.2,20.2,21,20.2s20.2-8.7,21-20.2
		c0.2-2.9,0.3-22.2,0-25.8C366.5,47.9,358,39,346.2,39z M346.3,103.2c-6.3,0-11.7-4.9-11.9-11.9c-0.1-2.3-0.1-35.9,0-38.7
		c0.3-7,5.6-11.7,11.9-11.7s11.7,4.7,11.9,11.7c0.1,2.8,0.1,36.4,0,38.7C357.9,98.3,352.6,103.2,346.3,103.2z M415.4,104.3l-4.6-4.6
		V42.4h18v-2.6h-44.4v2.6h18v61.9H415.4z M468.6,104.3l-4.6-4.6V42.4h18v-2.6h-44.4v2.6h18v61.9H468.6z M600.9,84.1
		c0.1-1.9,0.1-21.4,0-24.2c-0.4-11.4-8.1-20.2-19.3-20.2c-1.3,0-24.3,0-24.3,0l4.6,4.6v59.9c0,0,18.2,0,19.7,0
		C592.7,104.3,600.4,95.2,600.9,84.1z M591.7,92.4c-0.3,4.9-4.5,9.7-10.2,9.7c-1.2,0-11.3,0-11.3,0V42c0,0,9.8,0,11.3,0
		c5.6,0,9.7,4,10.1,9.7C591.8,53.4,591.8,91,591.7,92.4z M692.7,104.3h33.8v-2.5h-25.4v-62h-13l4.6,4.6V104.3z M769,69.3v-2.5h-18.2
		V42.3h26.5v-2.5h-39.5l4.6,4.6v59.9h36v-2.5h-27.6V69.3H769z M676.2,104.3h-12.6l-7.2-17.8h-29l-6.6,17.8h-3l21.9-59.2l-4.1-5.3
		h10.8l24.1,59.9L676.2,104.3z M655.4,84l-14.2-35l-12.9,35H655.4z"/>
</g>
<path id="XMLID_723_" class="st1" d="M100.1,84.1l-1.8-16.5l16.6-46.4c0.4-1.1,1.7-0.7,1.6,0.5c-0.3,3.6,0.3,44.5,0.3,44.5
	L100.1,84.1z M143.4,122.8c9.9-12.4,27.1-45.1,28.5-47.1c0.8-1.1-0.6-2.5-1.4-1.8c-17.6,16.5-74.2,67.9-74.2,67.9
	c0-24.5,24-38,40.4-49.9c0,0,12.7-44.6,14.8-51.5c0.4-1.4-1.2-2.1-1.8-1c-2.9,5.5-36.3,48-46.1,60.5c-7.2,9.2-17.5,29.2-17.5,29.2
	s0-127.1,0-128.2c0-1.4-1.6-1.4-1.9,0c-4.6,19.3-9.8,37.5-12.8,59.3l-14-39.1c-0.4-1.1-1.7-0.7-1.6,0.5c0.3,3.6-0.3,44.5-0.3,44.5
	L69.2,81c-0.4,6-0.6,12.3-0.6,19c0,0-40.5-50.7-46.1-60.5c-0.6-1.1-2.3-0.4-1.8,1c2.6,7.7,14.6,50.6,14.6,50.6
	c22.4,18.9,44.4,24.4,44.4,61.6c22.8,1.4,61.6-5.2,75.9-27.8c0.3-0.4-0.2-1-0.6-0.7c-6.2,5-20.8,10.1-30.5,10.3
	C124.5,134.6,137.6,130.2,143.4,122.8z M64.9,131c-5-4.6-47.9-42.9-63.3-57c-0.8-0.7-2.1,0.7-1.4,1.8c1.4,2,18.6,34.7,28.5,47.1
	c6.1,7.7,19,11.7,19,11.7c-9.7-0.2-24.3-5.3-30.5-10.3c-0.4-0.3-0.8,0.3-0.6,0.7c10.3,16.3,32.9,24.8,57.7,27.4
	C74.3,152.4,74,139.3,64.9,131z"/>
</svg>
