<svg xmlns="http://www.w3.org/2000/svg" viewBox="0 0 913.5 144">
	<path fill="#bebebe" d="M907,115.88a6.62,6.62,0,1,1-6.44,6.62A6.53,6.53,0,0,1,907,115.88Zm0,12a5.39,5.39,0,1,0-5.11-5.39A5.21,5.21,0,0,0,907,127.89Zm-2.21-8.83h2.63a2,2,0,0,1,2.16,2.08,1.83,1.83,0,0,1-1.25,1.82v0a2.33,2.33,0,0,1,.23.39l1.31,2.52h-1.41l-1.27-2.65h-1.11v2.65h-1.29Zm2.37,3.24a1,1,0,0,0,1.11-1.16,1,1,0,0,0-1.11-1.1h-1.08v2.26Z"/>
	<path fill="#8dc63f" d="M850.52,80.89a90.3,90.3,0,0,1-27.09,47.32,82.76,82.76,0,0,0,74.45,11.63A82.57,82.57,0,0,0,850.52,80.89Z"/>
	<path fill="#00a4e4" d="M736.31,139.86a82.8,82.8,0,0,0,74.46-11.65,90.18,90.18,0,0,1-27.1-47.31A82.53,82.53,0,0,0,736.31,139.86Z"/>
	<path fill="#bebebe" d="M792.84,78.85a80.81,80.81,0,0,0,24.26,42.42,80.87,80.87,0,0,0,24.25-42.42A79.71,79.71,0,0,0,792.84,78.85Z"/>
	<path fill="#fdb924" d="M817.1,0a82.29,82.29,0,0,0-27.56,61.54,72.21,72.21,0,0,0,.49,8.35,89.3,89.3,0,0,1,54.13,0,72.17,72.17,0,0,0,.5-8.35A82.29,82.29,0,0,0,817.1,0Z"/>
	<path fill="#1a1a1a" d="M621.56,40.13h15.15l15.45,52.23c1.18,3.83,1.77,8,1.92,8h.29a79.46,79.46,0,0,1,1.91-8l16.18-52.08h13.1l16,52.08c1.17,3.83,2.06,8,2.06,8H704a59.93,59.93,0,0,1,1.77-8l15.59-52.23h15l-24,74.45H696.59L681.14,66.76c-1.17-3.82-2.06-8.09-2.06-8.09h-.29s-.88,4.27-2.06,8.09l-15.3,47.82H645.54ZM392.21,38.37c21,0,32.22,15.59,32.22,34.87,0,1.91-.44,6.18-.44,6.18H369.7c.74,16.33,12.36,24.56,25.6,24.56,12.8,0,22.07-8.68,22.07-8.68l5.88,10.45a44.3,44.3,0,0,1-28.83,10.59c-23.39,0-39.43-16.92-39.43-39C355,53.67,371,38.37,392.21,38.37Zm17.66,30.31c-.45-12.8-8.39-19-17.95-19-10.89,0-19.72,6.77-21.78,19Zm-88.42-58h14.27V91.77c0,9,3.53,10.6,7.94,10.6a22.12,22.12,0,0,0,2.5-.15v12.65a40.46,40.46,0,0,1-4.7.29c-8.09,0-20-2.2-20-20.88ZM6.91,95.3A32,32,0,0,0,28.25,104c6.18,0,12.36-3.23,12.36-9.26C40.61,81,2.36,83.83,2.36,59.55,2.36,46,14.42,38.37,29.28,38.37c16.33,0,24,8.24,24,8.24L47.52,57.35s-6.62-6.62-18.39-6.62c-6.18,0-12.21,2.65-12.21,9.12,0,13.39,38.25,10.44,38.25,34.87,0,12.35-10.59,21.62-26.92,21.62C10,116.34,0,105.46,0,105.46Zm98.28-55.17H119V50a51.5,51.5,0,0,1-.3,5.45h.3c3.53-8.68,14-17.07,25.6-17.07,12.5,0,19.86,5.74,22.36,16.92h.29a30,30,0,0,1,26.48-16.92c16.77,0,24.57,9.56,24.57,28.54v47.67H204.05V70c0-10.45-2.06-18.68-13.24-18.68-10.45,0-18.24,8.82-20.89,19a44.21,44.21,0,0,0-1,10.3v34H154.62V70c0-9.71-1.47-18.68-13-18.68-10.88,0-18.53,9-21.33,19.56a41.44,41.44,0,0,0-.88,9.71v34H105.19Zm130.78,0h13.09v6.33a52.92,52.92,0,0,1-.29,5.44h.29s6.33-13.53,25-13.53c20,0,32.66,15.89,32.66,39,0,23.68-14.27,39-33.69,39-16.33,0-22.81-12.21-22.81-12.21H250s.29,2.65.29,6.47V144H236Zm34.87,64c11.77,0,21.48-9.71,21.48-26.63,0-16.18-8.68-26.63-21-26.63-11.18,0-21.48,7.8-21.48,26.78C249.8,90.89,257.16,104.13,270.84,104.13Zm-199.27-64H85.84v74.45H71.57Zm7.14-29.42a8.83,8.83,0,1,0,8.82,8.83A8.83,8.83,0,0,0,78.71,10.71ZM582,38.37c21,0,32.22,15.59,32.22,34.87,0,1.91-.44,6.18-.44,6.18H559.48c.73,16.33,12.36,24.56,25.6,24.56,12.8,0,22.07-8.68,22.07-8.68L613,105.75a44.3,44.3,0,0,1-28.83,10.59c-23.4,0-39.43-16.92-39.43-39C544.77,53.67,560.8,38.37,582,38.37Zm17.65,30.31c-.44-12.8-8.38-19-17.94-19-10.89,0-19.72,6.77-21.78,19ZM431.79,40.13h15.15L465,90.45c1.47,4.12,2.36,10.15,2.51,10.15h.29c.15,0,1.18-6,2.65-10.15l18.09-50.32h15l-27.51,74.45H459.59Zm85.25,0h14.27v74.45H517Zm7.13-29.42A8.83,8.83,0,1,0,533,19.54,8.82,8.82,0,0,0,524.17,10.71Z"/>
</svg>